<?xml version="1.0" encoding="utf-8"?><svg width="264" height="143" viewBox="0 0 264 143" xmlns="http://www.w3.org/2000/svg" xmlns:xlink="http://www.w3.org/1999/xlink"><view id="header--biggid-white-logo" viewBox="0 88 73 25"/><svg width="73" height="25" fill="none" viewBox="0 0 73 25" y="88" xmlns="http://www.w3.org/2000/svg"><path d="M13.889 12.683c0 1.066-.182 2.04-.546 2.92a7.008 7.008 0 01-1.486 2.272 6.661 6.661 0 01-2.209 1.46c-.837.347-1.739.52-2.704.52a6.913 6.913 0 01-2.704-.533 6.909 6.909 0 01-2.209-1.485 7.04 7.04 0 01-1.485-2.26C.182 14.697 0 13.732 0 12.683V.597h3.479v6.347c.186-.237.41-.448.672-.634.271-.187.559-.339.864-.457.313-.119.634-.208.964-.267.33-.068.652-.102.965-.102.965 0 1.867.182 2.704.546a6.633 6.633 0 012.21 1.498 7.157 7.157 0 011.485 2.285c.364.872.546 1.829.546 2.87zm-3.491 0a3.77 3.77 0 00-.28-1.46 3.578 3.578 0 00-.736-1.181 3.385 3.385 0 00-1.105-.774 3.217 3.217 0 00-1.333-.28 2.97 2.97 0 00-1.345.318 3.58 3.58 0 00-1.092.825 3.76 3.76 0 00-.736 1.18c-.178.44-.267.898-.267 1.372 0 .524.089 1.011.267 1.46.177.448.423.837.736 1.167a3.6 3.6 0 001.092.788c.423.186.871.279 1.345.279s.919-.093 1.333-.28a3.554 3.554 0 001.105-.787c.313-.33.558-.719.736-1.167a3.77 3.77 0 00.28-1.46zM19.906 2.31c0 .322-.063.623-.19.902-.119.28-.284.525-.495.736a2.566 2.566 0 01-.75.495c-.279.119-.58.178-.9.178-.322 0-.627-.06-.915-.178a2.618 2.618 0 01-.736-.495 2.619 2.619 0 01-.495-.736 2.284 2.284 0 01-.178-.901c0-.314.06-.61.178-.89A2.304 2.304 0 0116.656.19 2.24 2.24 0 0117.57 0c.322 0 .622.063.902.19.287.119.537.284.749.496.211.203.376.448.495.736.127.28.19.575.19.889zm-.596 17.292h-3.492V6.005h3.492v13.597zM31.637 12.683c0-.474-.093-.931-.28-1.371a3.76 3.76 0 00-.736-1.181 3.532 3.532 0 00-1.104-.825 2.892 2.892 0 00-1.333-.318c-.474 0-.923.08-1.346.241-.415.161-.779.398-1.092.711a3.375 3.375 0 00-.723 1.168c-.178.457-.267.982-.267 1.575 0 .567.089 1.079.267 1.536.177.448.418.833.723 1.155a3.35 3.35 0 001.092.749c.423.17.872.254 1.346.254a2.99 2.99 0 001.333-.305 3.814 3.814 0 001.104-.825c.313-.347.559-.74.736-1.18.187-.45.28-.91.28-1.384zm3.49 5.205a6.68 6.68 0 01-.545 2.691 6.932 6.932 0 01-1.498 2.196 6.998 6.998 0 01-2.209 1.486 6.68 6.68 0 01-2.691.546l-1.74-.026v-3.466l1.714.026c.542 0 1.003-.072 1.384-.216.38-.135.702-.326.965-.571.262-.237.47-.512.622-.825.16-.314.288-.644.38-.99-.135.22-.33.401-.583.545a4.05 4.05 0 01-.85.33 5 5 0 01-.966.19 9.13 9.13 0 01-.926.052 7.377 7.377 0 01-2.704-.496 6.705 6.705 0 01-2.21-1.409c-.626-.618-1.12-1.37-1.485-2.26-.364-.888-.546-1.891-.546-3.008a7.4 7.4 0 01.546-2.857 7.155 7.155 0 011.485-2.285 6.98 6.98 0 012.21-1.51 6.772 6.772 0 012.704-.547c.44 0 .876.055 1.307.165.432.11.85.263 1.257.457.406.195.791.424 1.155.686.373.262.72.546 1.041.85L34.29 6.03h.838v11.858zM47.455 12.683c0-.474-.093-.931-.28-1.371a3.762 3.762 0 00-.735-1.181 3.533 3.533 0 00-1.105-.825 2.892 2.892 0 00-1.333-.318c-.474 0-.923.08-1.346.241-.414.161-.778.398-1.091.711a3.377 3.377 0 00-.724 1.168c-.178.457-.267.982-.267 1.575 0 .567.09 1.079.267 1.536.178.448.419.833.724 1.155a3.35 3.35 0 001.091.749c.423.17.872.254 1.346.254a2.99 2.99 0 001.333-.305 3.815 3.815 0 001.105-.825c.313-.347.558-.74.736-1.18.186-.45.28-.91.28-1.384zm3.491 5.205c0 .956-.182 1.853-.546 2.691a6.932 6.932 0 01-1.498 2.196 7 7 0 01-2.209 1.486 6.681 6.681 0 01-2.691.546l-1.74-.026v-3.466l1.715.026c.541 0 1.003-.072 1.383-.216a2.73 2.73 0 00.965-.571c.263-.237.47-.512.622-.825.161-.314.288-.644.381-.99-.135.22-.33.401-.584.545a4.048 4.048 0 01-.85.33 4.999 4.999 0 01-.965.19 9.13 9.13 0 01-.927.052 7.377 7.377 0 01-2.704-.496 6.704 6.704 0 01-2.21-1.409c-.625-.618-1.12-1.37-1.485-2.26-.363-.888-.545-1.891-.545-3.008 0-1.024.182-1.977.545-2.857.364-.88.86-1.642 1.486-2.285a6.98 6.98 0 012.209-1.51 6.772 6.772 0 012.704-.547c.44 0 .876.055 1.308.165.431.11.85.263 1.256.457.407.195.792.424 1.156.686.372.262.72.546 1.04.85l1.346-1.612h.838v11.858zM57.688 2.31c0 .322-.064.623-.19.902-.12.28-.284.525-.496.736a2.565 2.565 0 01-.75.495c-.278.119-.579.178-.9.178-.322 0-.627-.06-.914-.178a2.617 2.617 0 01-.737-.495 2.614 2.614 0 01-.495-.736 2.284 2.284 0 01-.178-.901c0-.314.06-.61.178-.89A2.303 2.303 0 0154.437.19a2.24 2.24 0 01.915-.19c.321 0 .622.063.9.19.289.119.538.284.75.496.212.203.377.448.495.736.127.28.19.575.19.889zm-.597 17.292H53.6V6.005h3.49v13.597zM72.884 19.602h-.838L70.7 17.735c-.33.297-.681.576-1.053.838a8.232 8.232 0 01-1.156.673 7.39 7.39 0 01-1.257.444c-.423.11-.854.165-1.294.165a6.913 6.913 0 01-2.705-.533 7.085 7.085 0 01-2.209-1.498 7.191 7.191 0 01-1.485-2.272c-.364-.88-.546-1.837-.546-2.87 0-1.024.182-1.976.546-2.856.364-.88.86-1.642 1.485-2.285a6.98 6.98 0 012.21-1.51 6.772 6.772 0 012.703-.547c.305 0 .618.026.94.077.33.05.647.135.952.253.313.11.605.259.876.445.27.186.5.414.686.685V.597h3.49v19.005zm-3.491-6.92c0-.473-.094-.93-.28-1.37a3.762 3.762 0 00-.736-1.181 3.533 3.533 0 00-1.105-.825 2.892 2.892 0 00-1.333-.318c-.473 0-.922.085-1.345.254a3.19 3.19 0 00-1.092.737 3.4 3.4 0 00-.724 1.155 4.247 4.247 0 00-.266 1.549 3.889 3.889 0 00.99 2.603 3.5 3.5 0 001.092.799c.423.195.872.292 1.346.292a2.99 2.99 0 001.332-.305 3.815 3.815 0 001.105-.825c.313-.347.559-.74.736-1.18.186-.45.28-.91.28-1.384z" fill="#fff"/></svg><view id="header--bonus-icon" viewBox="45 113 27 27"/><svg width="27" height="27" fill="none" viewBox="0 0 27 27" x="45" y="113" xmlns="http://www.w3.org/2000/svg"><path fill-rule="evenodd" clip-rule="evenodd" d="M13.61 2.238l-.11-.702-.11.702c-.412 2.633-3.752 3.528-5.426 1.454l-.446-.553.256.663c.959 2.486-1.486 4.931-3.972 3.972l-.663-.256.553.446c2.074 1.674 1.179 5.014-1.454 5.426l-.702.11.702.11c2.633.412 3.528 3.752 1.454 5.426l-.553.446.663-.256c2.486-.959 4.931 1.486 3.972 3.972l-.256.663.446-.553c1.674-2.074 5.014-1.179 5.426 1.454l.11.702.11-.702c.412-2.633 3.752-3.528 5.426-1.454l.446.553-.256-.663c-.959-2.486 1.486-4.931 3.972-3.972l.663.256-.553-.446c-2.074-1.674-1.179-5.014 1.454-5.426l.702-.11-.702-.11c-2.633-.412-3.528-3.752-1.454-5.426l.553-.446-.663.256c-2.486.959-4.931-1.486-3.972-3.972l.256-.663-.446.553c-1.674 2.074-5.014 1.179-5.426-1.454zm1.408-.94c-.272-1.73-2.764-1.73-3.036 0l-.11.702c-.206 1.317-1.876 1.764-2.712.727l-.447-.553c-1.1-1.363-3.259-.117-2.628 1.518l.256.663c.48 1.243-.743 2.465-1.986 1.986l-.663-.256C2.057 5.455.81 7.613 2.174 8.713l.553.447c1.037.836.59 2.506-.727 2.713l-.702.11c-1.73.27-1.73 2.763 0 3.034l.702.11c1.317.207 1.764 1.877.727 2.713l-.553.447c-1.363 1.1-.117 3.259 1.518 2.628l.663-.256c1.243-.48 2.465.743 1.986 1.986l-.256.663c-.63 1.635 1.528 2.881 2.628 1.518l.447-.553c.836-1.037 2.506-.59 2.713.727l.11.702c.27 1.73 2.763 1.73 3.034 0l.11-.702c.207-1.317 1.877-1.764 2.713-.727l.447.553c1.1 1.363 3.259.117 2.628-1.518l-.256-.663c-.48-1.243.743-2.465 1.986-1.986l.663.256c1.635.63 2.881-1.528 1.518-2.628l-.553-.447c-1.037-.836-.59-2.506.727-2.713l.702-.11c1.73-.27 1.73-2.763 0-3.034l-.702-.11c-1.317-.207-1.764-1.877-.727-2.713l.553-.447c1.363-1.1.117-3.259-1.518-2.628l-.663.256c-1.243.48-2.465-.743-1.986-1.986l.256-.663c.63-1.635-1.528-2.881-2.628-1.518l-.447.553c-.836 1.037-2.506.59-2.713-.727l-.11-.702z" fill="#fff"/><path d="M9 10.01c0-.596.196-1.08.59-1.449.392-.374.907-.561 1.543-.561.646 0 1.165.185 1.558.554.393.366.589.862.589 1.49v.481c0 .601-.196 1.084-.59 1.45-.392.365-.907.547-1.543.547-.641 0-1.16-.182-1.558-.547-.393-.37-.589-.867-.589-1.49v-.474zm1.3.515c0 .267.077.483.23.648.159.16.364.24.617.24.252 0 .454-.082.602-.247.15-.164.224-.385.224-.661v-.494c0-.268-.075-.483-.224-.648-.149-.165-.354-.247-.616-.247a.785.785 0 00-.602.247c-.154.16-.23.385-.23.674v.488zm3.413 4.957c0-.602.199-1.085.596-1.45.398-.37.912-.554 1.544-.554.641 0 1.158.182 1.551.547.397.361.596.86.596 1.497v.48c0 .597-.194 1.08-.582 1.45-.389.365-.906.548-1.551.548-.65 0-1.172-.185-1.565-.554-.392-.37-.589-.86-.589-1.47v-.494zm1.3.52c0 .246.082.455.244.629a.8.8 0 00.61.26c.55 0 .826-.3.826-.902v-.507c0-.268-.077-.481-.23-.642a.794.794 0 00-.61-.247.794.794 0 00-.61.247c-.153.16-.23.381-.23.662v.5zm-3.48 1.136l-.955-.507 4.815-7.602.955.507-4.815 7.602z" fill="#fff"/></svg><view id="header--cart-icon" viewBox="73 88 18 25"/><svg width="18" height="25" fill="none" viewBox="0 0 18 25" x="73" y="88" xmlns="http://www.w3.org/2000/svg"><path d="M1.832 10.883A2 2 0 013.83 9H14.17a2 2 0 011.997 1.883l.647 11A2 2 0 0114.818 24H3.182a2 2 0 01-1.997-2.117l.647-11z" stroke="#fff" stroke-width="2"/><path fill-rule="evenodd" clip-rule="evenodd" d="M12 12V5a3 3 0 10-6 0v7H4V5a5 5 0 0110 0v7h-2z" fill="#fff"/></svg><view id="header--menu-icon" viewBox="0 113 30 30"/><svg width="30" height="30" fill="none" viewBox="0 0 30 30" y="113" xmlns="http://www.w3.org/2000/svg"><path d="M23 7H8a1 1 0 000 2h15a1 1 0 100-2zM23 21H8a1 1 0 100 2h15a1 1 0 100-2zM21 14H10a1 1 0 100 2h11a1 1 0 100-2z" fill="#fff"/></svg><view id="header--profile-icon" viewBox="91 88 19 25"/><svg width="19" height="25" fill="none" viewBox="0 0 19 25" x="91" y="88" xmlns="http://www.w3.org/2000/svg"><path clip-rule="evenodd" d="M16.157 17.44l-3.53-1.83a1.013 1.013 0 01-.54-.907v-1.296a6.63 6.63 0 00.266-.364 8.903 8.903 0 001.091-2.223c.522-.248.86-.783.86-1.387V7.9c0-.37-.133-.727-.37-1.006v-2.04c.022-.21.103-1.465-.772-2.5C12.402 1.455 11.17 1 9.5 1c-1.67 0-2.903.455-3.662 1.353-.875 1.036-.793 2.291-.773 2.502v2.039c-.236.28-.37.637-.37 1.006v1.533c0 .467.205.902.554 1.192A8.164 8.164 0 006.543 13.4v1.269c0 .37-.195.711-.508.89l-3.297 1.864C1.666 18.03 1 19.192 1 20.46V21.7C1 23.52 6.56 24 9.5 24c2.94 0 8.5-.48 8.5-2.3v-1.166c0-1.318-.706-2.504-1.843-3.093v0z" stroke="#fff" stroke-width="2"/></svg><view id="header--search-icon" viewBox="110 88 24 24"/><svg width="24" height="24" fill="none" viewBox="0 0 24 24" x="110" y="88" xmlns="http://www.w3.org/2000/svg"><circle cx="12.503" cy="10.5" r="9.5" stroke="#fff" stroke-width="2"/><path stroke="#fff" stroke-width="2" d="M6.369 16.707L.712 22.364"/></svg><view id="header--title-gradient" viewBox="30 113 15 30"/><svg fill="none" viewBox="0 0 15 30" width="15" height="30" x="30" y="113" xmlns="http://www.w3.org/2000/svg"><path fill="url(#gpaint0_linear)" d="M0 0h15v30H0z"/><defs><linearGradient id="gpaint0_linear" x1="-.1" x2="15.2" y1="0" y2="0" gradientUnits="userSpaceOnUse"><stop stop-color="#fff"/><stop offset="1" stop-color="#fff" stop-opacity="0"/></linearGradient></defs></svg><view id="photoswipe--default-skin--default-skin" viewBox="0 0 264 88"/><svg width="264" height="88" viewBox="0 0 264 88" xmlns="http://www.w3.org/2000/svg"><g fill="none" fill-rule="evenodd"><path d="M67.002 59.5v3.768c-6.307.84-9.184 5.75-10.002 9.732 2.22-2.83 5.564-5.098 10.002-5.098V71.5L73 65.585 67.002 59.5zM13 29v-5h2v3h3v2h-5zm0-14h5v2h-3v3h-2v-5zm18 0v5h-2v-3h-3v-2h5zm0 14h-5v-2h3v-3h2v5zM62 24v5h-2v-3h-3v-2h5zm0-4h-5v-2h3v-3h2v5zm8 0v-5h2v3h3v2h-5zm0 4h5v2h-3v3h-2v-5zM20.586 66l-5.656-5.656 1.414-1.414L22 64.586l5.656-5.656 1.414 1.414L23.414 66l5.656 5.656-1.414 1.414L22 67.414l-5.656 5.656-1.414-1.414L20.586 66zM111.785 65.03L110 63.5l3-3.5h-10v-2h10l-3-3.5 1.785-1.468L117 59l-5.215 6.03zM152.215 65.03L154 63.5l-3-3.5h10v-2h-10l3-3.5-1.785-1.468L147 59l5.215 6.03zM160.957 28.543l-3.25-3.25-1.413 1.414 3.25 3.25z" fill="#fff"/><path d="M152.5 27a5.5 5.5 0 100-11 5.5 5.5 0 100 11z" stroke="#fff" stroke-width="1.5"/><path fill="#fff" d="M150 21h5v1h-5z"/><g><path d="M116.957 28.543l-1.414 1.414-3.25-3.25 1.414-1.414 3.25 3.25z" fill="#fff"/><path d="M108.5 27a5.5 5.5 0 100-11 5.5 5.5 0 100 11z" stroke="#fff" stroke-width="1.5"/><path fill="#fff" d="M106 21h5v1h-5z"/><path fill="#fff" d="M109.043 19.008l-.085 5-1-.017.085-5z"/></g></g></svg></svg>