<svg width="73" height="25" viewBox="0 0 73 25" fill="none" xmlns="http://www.w3.org/2000/svg">
<path d="M13.8887 12.6826C13.8887 13.749 13.7067 14.7223 13.3428 15.6025C12.9788 16.4827 12.4837 17.2402 11.8574 17.875C11.2311 18.5013 10.4948 18.988 9.64844 19.335C8.81055 19.682 7.90918 19.8555 6.94434 19.8555C5.98796 19.8555 5.08659 19.6777 4.24023 19.3223C3.40234 18.9668 2.66602 18.4717 2.03125 17.8369C1.40495 17.2021 0.909831 16.4489 0.545898 15.5771C0.181966 14.6969 0 13.7321 0 12.6826V0.59668H3.47852V6.94434C3.66471 6.70736 3.889 6.49577 4.15137 6.30957C4.4222 6.12337 4.70996 5.97103 5.01465 5.85254C5.3278 5.73405 5.64941 5.64518 5.97949 5.58594C6.30957 5.51823 6.63119 5.48438 6.94434 5.48438C7.90918 5.48438 8.81055 5.66634 9.64844 6.03027C10.4948 6.38574 11.2311 6.88509 11.8574 7.52832C12.4837 8.17155 12.9788 8.93327 13.3428 9.81348C13.7067 10.6852 13.8887 11.6416 13.8887 12.6826ZM10.3975 12.6826C10.3975 12.1579 10.3044 11.6712 10.1182 11.2227C9.94043 10.7656 9.69499 10.3721 9.38184 10.042C9.06868 9.71191 8.70052 9.45378 8.27734 9.26758C7.86263 9.08138 7.41829 8.98828 6.94434 8.98828C6.47038 8.98828 6.02181 9.09408 5.59863 9.30566C5.18392 9.50879 4.81999 9.78385 4.50684 10.1309C4.19369 10.4694 3.94824 10.863 3.77051 11.3115C3.59277 11.7516 3.50391 12.2087 3.50391 12.6826C3.50391 13.2074 3.59277 13.694 3.77051 14.1426C3.94824 14.5911 4.19369 14.9805 4.50684 15.3105C4.81999 15.6406 5.18392 15.903 5.59863 16.0977C6.02181 16.2839 6.47038 16.377 6.94434 16.377C7.41829 16.377 7.86263 16.2839 8.27734 16.0977C8.70052 15.903 9.06868 15.6406 9.38184 15.3105C9.69499 14.9805 9.94043 14.5911 10.1182 14.1426C10.3044 13.694 10.3975 13.2074 10.3975 12.6826Z" fill="white"/>
<path d="M19.9062 2.31055C19.9062 2.63216 19.8428 2.93262 19.7158 3.21191C19.5973 3.49121 19.4323 3.73665 19.2207 3.94824C19.0091 4.15137 18.7594 4.31641 18.4717 4.44336C18.1924 4.56185 17.8919 4.62109 17.5703 4.62109C17.2487 4.62109 16.944 4.56185 16.6562 4.44336C16.377 4.31641 16.1315 4.15137 15.9199 3.94824C15.7168 3.73665 15.5518 3.49121 15.4248 3.21191C15.3063 2.93262 15.2471 2.63216 15.2471 2.31055C15.2471 1.9974 15.3063 1.70117 15.4248 1.42188C15.5518 1.13411 15.7168 0.888672 15.9199 0.685547C16.1315 0.473958 16.377 0.308919 16.6562 0.19043C16.944 0.0634766 17.2487 0 17.5703 0C17.8919 0 18.1924 0.0634766 18.4717 0.19043C18.7594 0.308919 19.0091 0.473958 19.2207 0.685547C19.4323 0.888672 19.5973 1.13411 19.7158 1.42188C19.8428 1.70117 19.9062 1.9974 19.9062 2.31055ZM19.3096 19.6016H15.8184V6.00488H19.3096V19.6016Z" fill="white"/>
<path d="M31.6367 12.6826C31.6367 12.2087 31.5436 11.7516 31.3574 11.3115C31.1797 10.863 30.9342 10.4694 30.6211 10.1309C30.3079 9.78385 29.9398 9.50879 29.5166 9.30566C29.1019 9.09408 28.6576 8.98828 28.1836 8.98828C27.7096 8.98828 27.2611 9.06868 26.8379 9.22949C26.4232 9.3903 26.0592 9.62728 25.7461 9.94043C25.4414 10.2536 25.2002 10.6429 25.0225 11.1084C24.8447 11.5654 24.7559 12.0902 24.7559 12.6826C24.7559 13.2497 24.8447 13.7617 25.0225 14.2188C25.2002 14.6673 25.4414 15.0524 25.7461 15.374C26.0592 15.6956 26.4232 15.9453 26.8379 16.123C27.2611 16.2923 27.7096 16.377 28.1836 16.377C28.6576 16.377 29.1019 16.2754 29.5166 16.0723C29.9398 15.8607 30.3079 15.5856 30.6211 15.2471C30.9342 14.9001 31.1797 14.5065 31.3574 14.0664C31.5436 13.6178 31.6367 13.1566 31.6367 12.6826ZM35.1279 17.8877C35.1279 18.8441 34.946 19.7412 34.582 20.5791C34.2181 21.417 33.7188 22.1491 33.084 22.7754C32.4577 23.4017 31.7214 23.8968 30.875 24.2607C30.0371 24.6247 29.14 24.8066 28.1836 24.8066L26.4443 24.7812V21.3154L28.1582 21.3408C28.6999 21.3408 29.1611 21.2689 29.542 21.125C29.9229 20.9896 30.2445 20.7992 30.5068 20.5537C30.7692 20.3167 30.9766 20.0417 31.1289 19.7285C31.2897 19.4154 31.4167 19.0853 31.5098 18.7383C31.3743 18.9583 31.1797 19.1403 30.9258 19.2842C30.6719 19.4196 30.3883 19.5296 30.0752 19.6143C29.7705 19.7074 29.4489 19.7708 29.1104 19.8047C28.7803 19.8385 28.4714 19.8555 28.1836 19.8555C27.2272 19.8555 26.3258 19.6904 25.4795 19.3604C24.6416 19.0303 23.9053 18.5605 23.2705 17.9512C22.6442 17.3333 22.1491 16.5801 21.7852 15.6914C21.4212 14.8027 21.2393 13.7998 21.2393 12.6826C21.2393 11.6585 21.4212 10.7064 21.7852 9.82617C22.1491 8.94596 22.6442 8.18425 23.2705 7.54102C23.9053 6.89779 24.6416 6.39421 25.4795 6.03027C26.3258 5.66634 27.2272 5.48438 28.1836 5.48438C28.6237 5.48438 29.0596 5.53939 29.4912 5.64941C29.9229 5.75944 30.3418 5.91178 30.748 6.10645C31.1543 6.30111 31.5394 6.52962 31.9033 6.79199C32.2757 7.05436 32.6227 7.33789 32.9443 7.64258L34.29 6.03027H35.1279V17.8877Z" fill="white"/>
<path d="M47.4551 12.6826C47.4551 12.2087 47.362 11.7516 47.1758 11.3115C46.998 10.863 46.7526 10.4694 46.4395 10.1309C46.1263 9.78385 45.7581 9.50879 45.335 9.30566C44.9202 9.09408 44.4759 8.98828 44.002 8.98828C43.528 8.98828 43.0794 9.06868 42.6562 9.22949C42.2415 9.3903 41.8776 9.62728 41.5645 9.94043C41.2598 10.2536 41.0186 10.6429 40.8408 11.1084C40.6631 11.5654 40.5742 12.0902 40.5742 12.6826C40.5742 13.2497 40.6631 13.7617 40.8408 14.2188C41.0186 14.6673 41.2598 15.0524 41.5645 15.374C41.8776 15.6956 42.2415 15.9453 42.6562 16.123C43.0794 16.2923 43.528 16.377 44.002 16.377C44.4759 16.377 44.9202 16.2754 45.335 16.0723C45.7581 15.8607 46.1263 15.5856 46.4395 15.2471C46.7526 14.9001 46.998 14.5065 47.1758 14.0664C47.362 13.6178 47.4551 13.1566 47.4551 12.6826ZM50.9463 17.8877C50.9463 18.8441 50.7643 19.7412 50.4004 20.5791C50.0365 21.417 49.5371 22.1491 48.9023 22.7754C48.276 23.4017 47.5397 23.8968 46.6934 24.2607C45.8555 24.6247 44.9583 24.8066 44.002 24.8066L42.2627 24.7812V21.3154L43.9766 21.3408C44.5182 21.3408 44.9795 21.2689 45.3604 21.125C45.7412 20.9896 46.0628 20.7992 46.3252 20.5537C46.5876 20.3167 46.7949 20.0417 46.9473 19.7285C47.1081 19.4154 47.235 19.0853 47.3281 18.7383C47.1927 18.9583 46.998 19.1403 46.7441 19.2842C46.4902 19.4196 46.2067 19.5296 45.8936 19.6143C45.5889 19.7074 45.2673 19.7708 44.9287 19.8047C44.5986 19.8385 44.2897 19.8555 44.002 19.8555C43.0456 19.8555 42.1442 19.6904 41.2979 19.3604C40.46 19.0303 39.7236 18.5605 39.0889 17.9512C38.4626 17.3333 37.9674 16.5801 37.6035 15.6914C37.2396 14.8027 37.0576 13.7998 37.0576 12.6826C37.0576 11.6585 37.2396 10.7064 37.6035 9.82617C37.9674 8.94596 38.4626 8.18425 39.0889 7.54102C39.7236 6.89779 40.46 6.39421 41.2979 6.03027C42.1442 5.66634 43.0456 5.48438 44.002 5.48438C44.4421 5.48438 44.8779 5.53939 45.3096 5.64941C45.7412 5.75944 46.1602 5.91178 46.5664 6.10645C46.9727 6.30111 47.3577 6.52962 47.7217 6.79199C48.0941 7.05436 48.4411 7.33789 48.7627 7.64258L50.1084 6.03027H50.9463V17.8877Z" fill="white"/>
<path d="M57.6875 2.31055C57.6875 2.63216 57.624 2.93262 57.4971 3.21191C57.3786 3.49121 57.2135 3.73665 57.002 3.94824C56.7904 4.15137 56.5407 4.31641 56.2529 4.44336C55.9736 4.56185 55.6732 4.62109 55.3516 4.62109C55.0299 4.62109 54.7253 4.56185 54.4375 4.44336C54.1582 4.31641 53.9128 4.15137 53.7012 3.94824C53.498 3.73665 53.333 3.49121 53.2061 3.21191C53.0876 2.93262 53.0283 2.63216 53.0283 2.31055C53.0283 1.9974 53.0876 1.70117 53.2061 1.42188C53.333 1.13411 53.498 0.888672 53.7012 0.685547C53.9128 0.473958 54.1582 0.308919 54.4375 0.19043C54.7253 0.0634766 55.0299 0 55.3516 0C55.6732 0 55.9736 0.0634766 56.2529 0.19043C56.5407 0.308919 56.7904 0.473958 57.002 0.685547C57.2135 0.888672 57.3786 1.13411 57.4971 1.42188C57.624 1.70117 57.6875 1.9974 57.6875 2.31055ZM57.0908 19.6016H53.5996V6.00488H57.0908V19.6016Z" fill="white"/>
<path d="M72.8838 19.6016H72.0459L70.7002 17.7354C70.3701 18.0316 70.0189 18.3109 69.6465 18.5732C69.2826 18.8271 68.8975 19.0514 68.4912 19.2461C68.085 19.4323 67.666 19.5804 67.2344 19.6904C66.8112 19.8005 66.3796 19.8555 65.9395 19.8555C64.9831 19.8555 64.0817 19.6777 63.2354 19.3223C62.3975 18.9583 61.6611 18.459 61.0264 17.8242C60.4001 17.181 59.9049 16.4235 59.541 15.5518C59.1771 14.6715 58.9951 13.7152 58.9951 12.6826C58.9951 11.6585 59.1771 10.7064 59.541 9.82617C59.9049 8.94596 60.4001 8.18425 61.0264 7.54102C61.6611 6.89779 62.3975 6.39421 63.2354 6.03027C64.0817 5.66634 64.9831 5.48438 65.9395 5.48438C66.2441 5.48438 66.5573 5.50977 66.8789 5.56055C67.209 5.61133 67.5264 5.69596 67.8311 5.81445C68.1442 5.92448 68.4362 6.07259 68.707 6.25879C68.9779 6.44499 69.2064 6.6735 69.3926 6.94434V0.59668H72.8838V19.6016ZM69.3926 12.6826C69.3926 12.2087 69.2995 11.7516 69.1133 11.3115C68.9355 10.863 68.6901 10.4694 68.377 10.1309C68.0638 9.78385 67.6956 9.50879 67.2725 9.30566C66.8577 9.09408 66.4134 8.98828 65.9395 8.98828C65.4655 8.98828 65.0169 9.07292 64.5938 9.24219C64.179 9.41146 63.8151 9.6569 63.502 9.97852C63.1973 10.2917 62.9561 10.6768 62.7783 11.1338C62.6006 11.5908 62.5117 12.1071 62.5117 12.6826C62.5117 13.182 62.6006 13.6559 62.7783 14.1045C62.9561 14.5531 63.1973 14.9466 63.502 15.2852C63.8151 15.6237 64.179 15.8903 64.5938 16.085C65.0169 16.2796 65.4655 16.377 65.9395 16.377C66.4134 16.377 66.8577 16.2754 67.2725 16.0723C67.6956 15.8607 68.0638 15.5856 68.377 15.2471C68.6901 14.9001 68.9355 14.5065 69.1133 14.0664C69.2995 13.6178 69.3926 13.1566 69.3926 12.6826Z" fill="white"/>
</svg>
