<svg width="27" height="27" viewBox="0 0 27 27" fill="none" xmlns="http://www.w3.org/2000/svg">
<path fill-rule="evenodd" clip-rule="evenodd" d="M13.61 2.23808L13.5 1.53603L13.39 2.23808C12.9776 4.87089 9.6379 5.76576 7.96429 3.6919L7.51802 3.1389L7.77379 3.80188C8.733 6.28819 6.2882 8.733 3.80188 7.77379L3.1389 7.51802L3.6919 7.96429C5.76575 9.63789 4.8709 12.9776 2.23808 13.39L1.53603 13.5L2.23808 13.61C4.87089 14.0224 5.76576 17.3621 3.6919 19.0357L3.1389 19.482L3.80188 19.2262C6.28819 18.267 8.733 20.7118 7.77379 23.1981L7.51802 23.8611L7.96429 23.3081C9.63789 21.2342 12.9776 22.1291 13.39 24.7619L13.5 25.464L13.61 24.7619C14.0224 22.1291 17.3621 21.2342 19.0357 23.3081L19.482 23.8611L19.2262 23.1981C18.267 20.7118 20.7118 18.267 23.1981 19.2262L23.8611 19.482L23.3081 19.0357C21.2342 17.3621 22.1291 14.0224 24.7619 13.61L25.464 13.5L24.7619 13.39C22.1291 12.9776 21.2342 9.6379 23.3081 7.96429L23.8611 7.51802L23.1981 7.77379C20.7118 8.733 18.267 6.2882 19.2262 3.80188L19.482 3.1389L19.0357 3.6919C17.3621 5.76575 14.0224 4.8709 13.61 2.23808ZM15.0175 1.2983C14.7463 -0.432764 12.2537 -0.432766 11.9825 1.29829L11.8725 2.00034C11.6663 3.31675 9.99644 3.76418 9.15963 2.72725L8.71336 2.17426C7.61298 0.810707 5.45426 2.05704 6.08494 3.69178L6.34071 4.35475C6.82032 5.59791 5.59791 6.82032 4.35476 6.34071L3.69178 6.08494C2.05704 5.45426 0.810706 7.61297 2.17425 8.71336L2.72725 9.15963C3.76418 9.99643 3.31675 11.6663 2.00034 11.8725L1.2983 11.9825C-0.432764 12.2537 -0.432766 14.7463 1.29829 15.0175L2.00034 15.1275C3.31675 15.3337 3.76418 17.0036 2.72725 17.8404L2.17426 18.2866C0.810707 19.387 2.05704 21.5457 3.69178 20.9151L4.35475 20.6593C5.59791 20.1797 6.82032 21.4021 6.34071 22.6452L6.08494 23.3082C5.45426 24.943 7.61297 26.1893 8.71336 24.8257L9.15963 24.2727C9.99643 23.2358 11.6663 23.6832 11.8725 24.9997L11.9825 25.7017C12.2537 27.4328 14.7463 27.4328 15.0175 25.7017L15.1275 24.9997C15.3337 23.6832 17.0036 23.2358 17.8404 24.2727L18.2866 24.8257C19.387 26.1893 21.5457 24.943 20.9151 23.3082L20.6593 22.6452C20.1797 21.4021 21.4021 20.1797 22.6452 20.6593L23.3082 20.9151C24.943 21.5457 26.1893 19.387 24.8257 18.2866L24.2727 17.8404C23.2358 17.0036 23.6832 15.3337 24.9997 15.1275L25.7017 15.0175C27.4328 14.7463 27.4328 12.2537 25.7017 11.9825L24.9997 11.8725C23.6832 11.6663 23.2358 9.99644 24.2727 9.15963L24.8257 8.71336C26.1893 7.61298 24.943 5.45426 23.3082 6.08494L22.6452 6.34071C21.4021 6.82032 20.1797 5.59791 20.6593 4.35476L20.9151 3.69178C21.5457 2.05704 19.387 0.810706 18.2866 2.17425L17.8404 2.72725C17.0036 3.76418 15.3337 3.31675 15.1275 2.00034L15.0175 1.2983Z" fill="white"/>
<path d="M9 10.0107C9 9.41394 9.19639 8.93075 9.58916 8.56112C9.98194 8.18704 10.4966 8 11.1332 8C11.7788 8 12.298 8.18481 12.6907 8.55444C13.0835 8.91962 13.2799 9.41617 13.2799 10.0441V10.5251C13.2799 11.1263 13.0835 11.6094 12.6907 11.9746C12.298 12.3398 11.7833 12.5224 11.1467 12.5224C10.5056 12.5224 9.98646 12.3398 9.58916 11.9746C9.19639 11.605 9 11.1084 9 10.485V10.0107ZM10.3002 10.5251C10.3002 10.7923 10.377 11.0082 10.5305 11.173C10.6885 11.3333 10.8939 11.4135 11.1467 11.4135C11.3995 11.4135 11.6005 11.3311 11.7494 11.1663C11.8984 11.0016 11.9729 10.7811 11.9729 10.505V10.0107C11.9729 9.74349 11.8984 9.5275 11.7494 9.36273C11.6005 9.19795 11.395 9.11556 11.1332 9.11556C10.8849 9.11556 10.684 9.19795 10.5305 9.36273C10.377 9.52305 10.3002 9.74794 10.3002 10.0374V10.5251ZM13.7133 15.4816C13.7133 14.8804 13.912 14.3972 14.3093 14.0321C14.7065 13.6624 15.2212 13.4776 15.8533 13.4776C16.4944 13.4776 17.0113 13.6602 17.4041 14.0254C17.8014 14.3861 18 14.8849 18 15.5217V16.0027C18 16.5994 17.8059 17.0826 17.4176 17.4522C17.0293 17.8174 16.5124 18 15.8668 18C15.2167 18 14.6953 17.8152 14.3025 17.4456C13.9097 17.0759 13.7133 16.5861 13.7133 15.976V15.4816ZM15.0135 16.0027C15.0135 16.2476 15.0948 16.4569 15.2573 16.6306C15.4199 16.8043 15.623 16.8911 15.8668 16.8911C16.4176 16.8911 16.693 16.5905 16.693 15.9893V15.4816C16.693 15.2144 16.6163 15.0007 16.4628 14.8403C16.3093 14.6756 16.1061 14.5932 15.8533 14.5932C15.6005 14.5932 15.3973 14.6756 15.2438 14.8403C15.0903 15.0007 15.0135 15.2211 15.0135 15.5017V16.0027ZM11.5327 17.1383L10.5779 16.6306L15.3928 9.02872L16.3476 9.53641L11.5327 17.1383Z" fill="white"/>
</svg>
