<svg width="18" height="25" viewBox="0 0 18 25" fill="none" xmlns="http://www.w3.org/2000/svg">
<path d="M1.83217 10.8826C1.89435 9.82543 2.76976 9 3.82872 9H14.1713C15.2302 9 16.1056 9.82543 16.1678 10.8826L16.8149 21.8826C16.8825 23.0313 15.9691 24 14.8183 24H3.18166C2.03091 24 1.11753 23.0313 1.18511 21.8826L1.83217 10.8826Z" stroke="white" stroke-width="2"/>
<path fill-rule="evenodd" clip-rule="evenodd" d="M12 12V5C12 3.34315 10.6569 2 9 2C7.34315 2 6 3.34315 6 5V12H4V5C4 2.23858 6.23858 0 9 0C11.7614 0 14 2.23858 14 5V12H12Z" fill="white"/>
</svg>
