<svg width="30" height="30" viewBox="0 0 30 30" fill="none" xmlns="http://www.w3.org/2000/svg">
<path d="M23 7H8C7.44772 7 7 7.44772 7 8C7 8.55228 7.44772 9 8 9H23C23.5523 9 24 8.55228 24 8C24 7.44772 23.5523 7 23 7Z" fill="white"/>
<path d="M23 21H8C7.44772 21 7 21.4477 7 22C7 22.5523 7.44772 23 8 23H23C23.5523 23 24 22.5523 24 22C24 21.4477 23.5523 21 23 21Z" fill="white"/>
<path d="M21 14H10C9.44772 14 9 14.4477 9 15C9 15.5523 9.44772 16 10 16H21C21.5523 16 22 15.5523 22 15C22 14.4477 21.5523 14 21 14Z" fill="white"/>
</svg>
